<mxfile host="65bd71144e">
    <diagram id="EwP9Gm6krhKAmZ5YbWz3" name="第 1 页">
        <mxGraphModel dx="748" dy="568" grid="1" gridSize="10" guides="1" tooltips="1" connect="1" arrows="1" fold="1" page="1" pageScale="1" pageWidth="827" pageHeight="1169" math="0" shadow="0">
            <root>
                <mxCell id="0"/>
                <mxCell id="1" parent="0"/>
                <mxCell id="2" value="设计模式分类" style="swimlane;childLayout=stackLayout;resizeParent=1;resizeParentMax=0;horizontal=1;startSize=20;horizontalStack=0;html=1;" vertex="1" parent="1">
                    <mxGeometry x="90" y="85" width="480" height="500" as="geometry"/>
                </mxCell>
                <mxCell id="3" value="行为型模式" style="swimlane;startSize=20;horizontal=0;html=1;" vertex="1" parent="2">
                    <mxGeometry y="20" width="480" height="120" as="geometry"/>
                </mxCell>
                <mxCell id="7" value="模板方法模式(Template Method)" style="text;html=1;align=center;verticalAlign=middle;resizable=0;points=[];autosize=1;strokeColor=none;fillColor=none;" vertex="1" parent="3">
                    <mxGeometry x="10" width="200" height="30" as="geometry"/>
                </mxCell>
                <mxCell id="8" value="策略模式(Strategy)" style="text;html=1;align=center;verticalAlign=middle;resizable=0;points=[];autosize=1;strokeColor=none;fillColor=none;" vertex="1" parent="3">
                    <mxGeometry x="50" y="20" width="120" height="30" as="geometry"/>
                </mxCell>
                <mxCell id="9" value="观察者模式(Observer)" style="text;html=1;align=center;verticalAlign=middle;resizable=0;points=[];autosize=1;strokeColor=none;fillColor=none;" vertex="1" parent="3">
                    <mxGeometry x="40" y="40" width="140" height="30" as="geometry"/>
                </mxCell>
                <mxCell id="10" value="命令模式(Command)" style="text;html=1;align=center;verticalAlign=middle;resizable=0;points=[];autosize=1;strokeColor=none;fillColor=none;" vertex="1" parent="3">
                    <mxGeometry x="45" y="60" width="130" height="30" as="geometry"/>
                </mxCell>
                <mxCell id="11" value="迭代器模式(Iterator)" style="text;html=1;align=center;verticalAlign=middle;resizable=0;points=[];autosize=1;strokeColor=none;fillColor=none;" vertex="1" parent="3">
                    <mxGeometry x="45" y="85" width="130" height="30" as="geometry"/>
                </mxCell>
                <mxCell id="12" value="状态模式(State)" style="text;html=1;align=center;verticalAlign=middle;resizable=0;points=[];autosize=1;strokeColor=none;fillColor=none;" vertex="1" parent="3">
                    <mxGeometry x="280" width="110" height="30" as="geometry"/>
                </mxCell>
                <mxCell id="13" value="中介者模式(Mediator)" style="text;html=1;align=center;verticalAlign=middle;resizable=0;points=[];autosize=1;strokeColor=none;fillColor=none;" vertex="1" parent="3">
                    <mxGeometry x="265" y="20" width="140" height="30" as="geometry"/>
                </mxCell>
                <mxCell id="14" value="备忘录模式(Memento)" style="text;html=1;align=center;verticalAlign=middle;resizable=0;points=[];autosize=1;strokeColor=none;fillColor=none;" vertex="1" parent="3">
                    <mxGeometry x="265" y="40" width="140" height="30" as="geometry"/>
                </mxCell>
                <mxCell id="15" value="职责链模式(Chain Responsibility)" style="text;html=1;align=center;verticalAlign=middle;resizable=0;points=[];autosize=1;strokeColor=none;fillColor=none;" vertex="1" parent="3">
                    <mxGeometry x="235" y="60" width="200" height="30" as="geometry"/>
                </mxCell>
                <mxCell id="16" value="访问者模式(Visitor)" style="text;html=1;align=center;verticalAlign=middle;resizable=0;points=[];autosize=1;strokeColor=none;fillColor=none;" vertex="1" parent="3">
                    <mxGeometry x="210" y="85" width="120" height="30" as="geometry"/>
                </mxCell>
                <mxCell id="17" value="解释器模式(Interpreter)" style="text;html=1;align=center;verticalAlign=middle;resizable=0;points=[];autosize=1;strokeColor=none;fillColor=none;" vertex="1" parent="3">
                    <mxGeometry x="314" y="85" width="150" height="30" as="geometry"/>
                </mxCell>
                <mxCell id="6" value="创建型模式" style="swimlane;startSize=20;horizontal=0;html=1;" vertex="1" parent="2">
                    <mxGeometry y="140" width="480" height="120" as="geometry"/>
                </mxCell>
                <mxCell id="18" value="简单工厂模式(Simple Factory)" style="text;html=1;align=center;verticalAlign=middle;resizable=0;points=[];autosize=1;strokeColor=none;fillColor=none;" vertex="1" parent="6">
                    <mxGeometry x="40" y="15" width="180" height="30" as="geometry"/>
                </mxCell>
                <mxCell id="19" value="工厂方法模式(Factory Method)" style="text;html=1;align=center;verticalAlign=middle;resizable=0;points=[];autosize=1;strokeColor=none;fillColor=none;" vertex="1" parent="6">
                    <mxGeometry x="35" y="45" width="190" height="30" as="geometry"/>
                </mxCell>
                <mxCell id="20" value="抽象工厂模式(Abstract Factory)" style="text;html=1;align=center;verticalAlign=middle;resizable=0;points=[];autosize=1;strokeColor=none;fillColor=none;" vertex="1" parent="6">
                    <mxGeometry x="40" y="75" width="190" height="30" as="geometry"/>
                </mxCell>
                <mxCell id="21" value="原型模式(Prototype)" style="text;html=1;align=center;verticalAlign=middle;resizable=0;points=[];autosize=1;strokeColor=none;fillColor=none;" vertex="1" parent="6">
                    <mxGeometry x="280" y="15" width="130" height="30" as="geometry"/>
                </mxCell>
                <mxCell id="22" value="建造者模式(Builder)" style="text;html=1;align=center;verticalAlign=middle;resizable=0;points=[];autosize=1;strokeColor=none;fillColor=none;" vertex="1" parent="6">
                    <mxGeometry x="280" y="45" width="130" height="30" as="geometry"/>
                </mxCell>
                <mxCell id="23" value="单一模式(Singleton)" style="text;html=1;align=center;verticalAlign=middle;resizable=0;points=[];autosize=1;strokeColor=none;fillColor=none;" vertex="1" parent="6">
                    <mxGeometry x="280" y="75" width="130" height="30" as="geometry"/>
                </mxCell>
                <mxCell id="4" value="结构性模式" style="swimlane;startSize=20;horizontal=0;html=1;" vertex="1" parent="2">
                    <mxGeometry y="260" width="480" height="120" as="geometry"/>
                </mxCell>
                <mxCell id="24" value="装饰模式(Decorator)" style="text;html=1;align=center;verticalAlign=middle;resizable=0;points=[];autosize=1;strokeColor=none;fillColor=none;" vertex="1" parent="4">
                    <mxGeometry x="45" y="15" width="130" height="30" as="geometry"/>
                </mxCell>
                <mxCell id="25" value="外观模式(Facade)" style="text;html=1;align=center;verticalAlign=middle;resizable=0;points=[];autosize=1;strokeColor=none;fillColor=none;" vertex="1" parent="4">
                    <mxGeometry x="45" y="45" width="120" height="30" as="geometry"/>
                </mxCell>
                <mxCell id="26" value="组合模式(Composite)" style="text;html=1;align=center;verticalAlign=middle;resizable=0;points=[];autosize=1;strokeColor=none;fillColor=none;" vertex="1" parent="4">
                    <mxGeometry x="40" y="75" width="140" height="30" as="geometry"/>
                </mxCell>
                <mxCell id="27" value="享元模式(Flyweight)" style="text;html=1;align=center;verticalAlign=middle;resizable=0;points=[];autosize=1;strokeColor=none;fillColor=none;" vertex="1" parent="4">
                    <mxGeometry x="190" y="15" width="130" height="30" as="geometry"/>
                </mxCell>
                <mxCell id="28" value="代理模式(Proxy)" style="text;html=1;align=center;verticalAlign=middle;resizable=0;points=[];autosize=1;strokeColor=none;fillColor=none;" vertex="1" parent="4">
                    <mxGeometry x="190" y="45" width="110" height="30" as="geometry"/>
                </mxCell>
                <mxCell id="29" value="适配器模式(Adapter)" style="text;html=1;align=center;verticalAlign=middle;resizable=0;points=[];autosize=1;strokeColor=none;fillColor=none;" vertex="1" parent="4">
                    <mxGeometry x="313" y="45" width="130" height="30" as="geometry"/>
                </mxCell>
                <mxCell id="30" value="桥接模式(Bridge)" style="text;html=1;align=center;verticalAlign=middle;resizable=0;points=[];autosize=1;strokeColor=none;fillColor=none;" vertex="1" parent="4">
                    <mxGeometry x="323" y="15" width="110" height="30" as="geometry"/>
                </mxCell>
                <mxCell id="5" value="说明" style="swimlane;startSize=20;horizontal=0;html=1;" vertex="1" parent="2">
                    <mxGeometry y="380" width="480" height="120" as="geometry"/>
                </mxCell>
                <mxCell id="31" value="行为型模式: 关注对象的行为或者交互，主要涉及算法和对象之间的职责分配" style="text;html=1;align=center;verticalAlign=middle;resizable=0;points=[];autosize=1;strokeColor=none;fillColor=none;" vertex="1" parent="5">
                    <mxGeometry x="34" y="10" width="430" height="30" as="geometry"/>
                </mxCell>
                <mxCell id="32" value="创建型模式: 关注如何创建对象，把对象的创建和使用解耦" style="text;html=1;align=center;verticalAlign=middle;resizable=0;points=[];autosize=1;strokeColor=none;fillColor=none;" vertex="1" parent="5">
                    <mxGeometry x="34" y="40" width="330" height="30" as="geometry"/>
                </mxCell>
                <mxCell id="33" value="结构型模式: 关注对象之间的关系，如何组合对象获得灵活的结构" style="text;html=1;align=center;verticalAlign=middle;resizable=0;points=[];autosize=1;strokeColor=none;fillColor=none;" vertex="1" parent="5">
                    <mxGeometry x="34" y="70" width="370" height="30" as="geometry"/>
                </mxCell>
            </root>
        </mxGraphModel>
    </diagram>
</mxfile>